<svg width="21" height="21" viewBox="0 0 21 21" fill="none" xmlns="http://www.w3.org/2000/svg">
<path d="M2.58754 0.397438C2.06492 -0.125826 1.2176 -0.125826 0.694985 0.397438C0.172371 0.920702 0.172371 1.76908 0.694985 2.29235L8.42294 10.0299L0.695064 17.7674C0.172451 18.2907 0.172451 19.1391 0.695064 19.6623C1.21768 20.1856 2.065 20.1856 2.58762 19.6623L10.3155 11.9248L18.0434 19.6623C18.566 20.1856 19.4133 20.1856 19.9359 19.6623C20.4585 19.1391 20.4585 18.2907 19.9359 17.7674L12.208 10.0299L19.936 2.29235C20.4586 1.76908 20.4586 0.920702 19.936 0.397438C19.4134 -0.125826 18.5661 -0.125826 18.0435 0.397438L10.3155 8.13502L2.58754 0.397438Z" fill="#9AA5BE"/>
</svg>
